name D:\school\WTK\thesis\model\3dpredictsim\Results\MidTarsalJoint\Fal_s1_bCst_PF_Natali2010_ls150_MT_k100_d020_MTP_T5_ig23.mot
datacolumns 128
datarows 4
range 1.72761998 1.76217238
endheader
time	pelvis_tilt	pelvis_list	pelvis_rotation	pelvis_tx	pelvis_ty	pelvis_tz	hip_flexion_l	hip_adduction_l	hip_rotation_l	hip_flexion_r	hip_adduction_r	hip_rotation_r	knee_angle_l	knee_angle_r	ankle_angle_l	ankle_angle_r	subtalar_angle_l	subtalar_angle_r	mtj_angle_l	mtj_angle_r	mtp_angle_l	mtp_angle_r	lumbar_extension	lumbar_bending	lumbar_rotation	arm_flex_l	arm_add_l	arm_rot_l	arm_flex_r	arm_add_r	arm_rot_r	elbow_flex_l	elbow_flex_r	pro_sup_l	pro_sup_r	glut_med1_l/activation	glut_med2_l/activation	glut_med3_l/activation	glut_min1_l/activation	glut_min2_l/activation	glut_min3_l/activation	semimem_l/activation	semiten_l/activation	bifemlh_l/activation	bifemsh_l/activation	sar_l/activation	add_long_l/activation	add_brev_l/activation	add_mag1_l/activation	add_mag2_l/activation	add_mag3_l/activation	tfl_l/activation	pect_l/activation	grac_l/activation	glut_max1_l/activation	glut_max2_l/activation	glut_max3_l/activation	iliacus_l/activation	psoas_l/activation	quad_fem_l/activation	gem_l/activation	peri_l/activation	rect_fem_l/activation	vas_med_l/activation	vas_int_l/activation	vas_lat_l/activation	med_gas_l/activation	lat_gas_l/activation	soleus_l/activation	tib_post_l/activation	flex_dig_l/activation	flex_hal_l/activation	tib_ant_l/activation	per_brev_l/activation	per_long_l/activation	per_tert_l/activation	ext_dig_l/activation	ext_hal_l/activation	ercspn_l/activation	intobl_l/activation	extobl_l/activation	glut_med1_r/activation	glut_med2_r/activation	glut_med3_r/activation	glut_min1_r/activation	glut_min2_r/activation	glut_min3_r/activation	semimem_r/activation	semiten_r/activation	bifemlh_r/activation	bifemsh_r/activation	sar_r/activation	add_long_r/activation	add_brev_r/activation	add_mag1_r/activation	add_mag2_r/activation	add_mag3_r/activation	tfl_r/activation	pect_r/activation	grac_r/activation	glut_max1_r/activation	glut_max2_r/activation	glut_max3_r/activation	iliacus_r/activation	psoas_r/activation	quad_fem_r/activation	gem_r/activation	peri_r/activation	rect_fem_r/activation	vas_med_r/activation	vas_int_r/activation	vas_lat_r/activation	med_gas_r/activation	lat_gas_r/activation	soleus_r/activation	tib_post_r/activation	flex_dig_r/activation	flex_hal_r/activation	tib_ant_r/activation	per_brev_r/activation	per_long_r/activation	per_tert_r/activation	ext_dig_r/activation	ext_hal_r/activation	ercspn_r/activation	intobl_r/activation	extobl_r/activation	
          1.72761998	         -2.92959355	          2.42877742	         -6.12271732	          2.15952498	          0.91654312	          0.00155305	         28.90530443	          3.78757289	         -1.59720325	        -16.25801659	         -1.84194045	          6.36350270	        -10.52094415	        -10.46062387	          4.81406270	         -4.60149768	         -6.00602238	         11.33865282	         -0.03740058	         10.50391611	         -0.81264321	          1.61162789	         -1.67953374	         -0.57163248	          2.34123201	         -5.65649986	        -13.47971236	          8.77464872	          5.73135358	        -13.46085815	         18.05082685	         14.48625372	         33.92797267	         86.51662706	         86.51662706	          0.05000000	          0.05000000	          0.08810397	          0.05000000	          0.05000000	          0.05000001	          0.19645133	          0.06633565	          0.11620461	          0.05000004	          0.05298682	          0.12030346	          0.28129909	          0.30568489	          0.20302118	          0.11007514	          0.05000008	          0.07103778	          0.13234169	          0.05000056	          0.10513673	          0.13992122	          0.05000003	          0.07103808	          0.49710417	          0.21923037	          0.10362067	          0.05959812	          0.10582647	          0.10682705	          0.09223227	          0.05959787	          0.06605717	          0.05000000	          0.05959795	          0.05000150	          0.05959793	          0.43120575	          0.25892938	          0.20484901	          0.16355892	          0.39322592	          0.16607333	          0.05000000	          0.09966712	          0.08902546	          0.20966164	          0.09591065	          0.07103872	          0.22260284	          0.17091099	          0.10092842	          0.05000047	          0.05000010	          0.05000011	          0.05000004	          0.10092780	          0.10390940	          0.05323053	          0.05959806	          0.05959742	          0.05959784	          0.28405288	          0.05959806	          0.05001872	          0.05000066	          0.05000049	          0.05000078	          0.39297027	          0.63190188	          0.05312190	          0.05960240	          0.07103800	          0.25306224	          0.06124128	          0.14157062	          0.13220796	          0.26527318	          0.36355402	          0.36427203	          0.24635408	          0.20626560	          0.28131605	          0.05000001	          0.05000003	          0.16512004	          0.05000004	          0.05000001	          0.05000007	          0.05094426	          0.06585243	          0.05959789	
          1.73913745	         -2.92532508	          2.52477203	         -6.40327369	          2.17704334	          0.91546417	          0.00137336	         28.20760251	          4.06175670	         -1.32916296	        -16.19224328	         -2.16319910	          6.16533960	        -11.14584717	        -12.27479077	          4.19335828	         -5.07773900	         -6.36438984	         12.18634146	         -0.27106969	          9.32512864	         -0.83022398	          3.11627987	         -1.46272538	         -0.77102628	          2.39691254	         -6.60202404	        -13.48256693	          8.71333586	          5.39256484	        -13.46440232	         18.21230520	         14.16349776	         35.16111316	         86.51662706	         86.51662706	          0.22356530	          0.20905596	          0.23343643	          0.29288446	          0.20607407	          0.17217555	          0.16481404	          0.06860019	          0.09749068	          0.07103836	          0.05000012	          0.10092931	          0.23599754	          0.25645616	          0.17032586	          0.12068710	          0.05000007	          0.05959795	          0.11102896	          0.05000014	          0.12818432	          0.11738852	          0.05374326	          0.05959783	          0.41704848	          0.18392463	          0.17793409	          0.05000020	          0.08878376	          0.08962320	          0.07737882	          0.05000004	          0.05541907	          0.05000009	          0.05000007	          0.05000008	          0.05000013	          0.49893589	          0.30781454	          0.17185934	          0.29724264	          0.47088757	          0.13932826	          0.05263580	          0.13577462	          0.07468844	          0.29330097	          0.08046484	          0.05959850	          0.27586130	          0.14338685	          0.08467452	          0.05000030	          0.05000004	          0.05000003	          0.05000004	          0.08467423	          0.08717542	          0.05000009	          0.05000019	          0.05000020	          0.05000015	          0.31984016	          0.05000046	          0.05000016	          0.05000205	          0.05000100	          0.05000039	          0.34648425	          0.60741145	          0.05000021	          0.05000393	          0.05959781	          0.21230808	          0.09120572	          0.11877163	          0.11091673	          0.22255250	          0.30500580	          0.31848363	          0.21220310	          0.17304786	          0.23601189	          0.05000000	          0.09409044	          0.17704334	          0.05000002	          0.05000000	          0.05000002	          0.05000000	          0.05524729	          0.05000001	
          1.75065491	         -2.91963908	          2.61308658	         -6.64272137	          2.19469360	          0.91456199	          0.00117064	         27.46896990	          4.30838516	         -1.06582984	        -16.03670263	         -2.47350926	          5.98166286	        -11.73161447	        -14.19614663	          3.55304470	         -5.66582912	         -6.71516472	         12.98424214	         -0.31880544	          7.85103563	         -0.76504980	          4.93226698	         -1.24578380	         -0.97217891	          2.44399117	         -7.53506185	        -13.48364065	          8.69189188	          4.99555217	        -13.47093167	         18.31056931	         13.88735996	         36.35698083	         86.51662706	         86.51662706	          0.31119543	          0.30725387	          0.32848426	          0.24571718	          0.17288738	          0.17531718	          0.13827172	          0.06684906	          0.08179041	          0.05959810	          0.05000013	          0.08467524	          0.19799154	          0.21515544	          0.14289597	          0.14801403	          0.05000008	          0.05000019	          0.09314845	          0.19567176	          0.17990811	          0.14481843	          0.05000000	          0.05000001	          0.34988529	          0.15430467	          0.14927890	          0.05000001	          0.08196229	          0.10410427	          0.06986281	          0.05000000	          0.05000000	          0.05000000	          0.05000000	          0.05000002	          0.05000002	          0.56549720	          0.31248703	          0.17987146	          0.52930596	          0.50932358	          0.24667381	          0.07616163	          0.11390892	          0.06266030	          0.25518342	          0.06750646	          0.05000054	          0.25771934	          0.12029527	          0.07103820	          0.05000034	          0.05000003	          0.05000003	          0.05000003	          0.07103828	          0.07313651	          0.05000008	          0.05000009	          0.05000021	          0.05000013	          0.26881426	          0.05000050	          0.05000018	          0.05000058	          0.05000034	          0.05000018	          0.29068522	          0.57616991	          0.05000006	          0.05000024	          0.05000010	          0.17811712	          0.09658312	          0.09964510	          0.14339503	          0.18671173	          0.25588642	          0.26719372	          0.17802906	          0.14517956	          0.19800360	          0.05000000	          0.10603320	          0.18218126	          0.05000005	          0.05000012	          0.05000005	          0.06270319	          0.05000000	          0.05000000	
          1.76217238	         -2.91266157	          2.69092320	         -6.84087600	          2.21231856	          0.91391670	          0.00093907	         26.77829116	          4.56114754	         -0.81071575	        -15.76438413	         -2.76517137	          5.81337782	        -12.39138758	        -16.23788890	          2.90183335	         -6.38382671	         -7.06941021	         13.72194786	         -0.34238106	          6.09072763	         -0.72790151	          6.95416935	         -1.04051787	         -1.17424512	          2.48343136	         -8.42505615	        -13.48081814	          8.68988238	          4.57634812	        -13.47847396	         18.38286735	         13.64682556	         37.47328216	         86.51662706	         86.51662706	          0.38940172	          0.37381189	          0.40425890	          0.23331527	          0.14504738	          0.23678324	          0.11600389	          0.07624909	          0.07746967	          0.05000027	          0.05000008	          0.07103881	          0.17848802	          0.18833108	          0.19769898	          0.17456905	          0.05000005	          0.05842110	          0.10875269	          0.24092469	          0.20992978	          0.17766456	          0.05000003	          0.05000002	          0.29353834	          0.12945483	          0.17353790	          0.05000001	          0.16813443	          0.17977244	          0.14470112	          0.05000000	          0.05000002	          0.05000000	          0.05000001	          0.05000030	          0.05000011	          0.64038742	          0.26216284	          0.15090422	          0.44406440	          0.50030318	          0.28624593	          0.08751485	          0.09556457	          0.05256924	          0.25444259	          0.05663496	          0.05000001	          0.21621542	          0.10092244	          0.05959793	          0.05000036	          0.05000004	          0.05000004	          0.05000003	          0.05959811	          0.11267605	          0.05000063	          0.05000036	          0.05000044	          0.05000023	          0.22552348	          0.07101564	          0.05000018	          0.05000035	          0.05000021	          0.05000013	          0.24387209	          0.52772975	          0.05000003	          0.05000011	          0.05000002	          0.14943241	          0.11367298	          0.11459249	          0.12030222	          0.15664291	          0.21467742	          0.22416374	          0.14935854	          0.12179927	          0.16611630	          0.08488074	          0.13624407	          0.17448960	          0.05000007	          0.12277639	          0.05000010	          0.08465486	          0.05000000	          0.05000000	
